<svg width="109" height="34" viewBox="0 0 109 34" fill="none" xmlns="http://www.w3.org/2000/svg">
<rect width="109" height="33" transform="translate(0 0.5)" fill="black"/>
<path d="M20.4261 14.294V12.7727H27.5938V14.294H24.9219V21.5H23.098V14.294H20.4261ZM30.5554 17.7159V21.5H28.7401V12.7727H30.5043V16.1094H30.581C30.7287 15.723 30.9673 15.4205 31.2969 15.2017C31.6264 14.9801 32.0398 14.8693 32.5369 14.8693C32.9915 14.8693 33.3878 14.9688 33.7259 15.1676C34.0668 15.3636 34.331 15.6463 34.5185 16.0156C34.7088 16.3821 34.8026 16.821 34.7997 17.3324V21.5H32.9844V17.6562C32.9872 17.2528 32.8849 16.9389 32.6776 16.7145C32.473 16.4901 32.1861 16.3778 31.8168 16.3778C31.5696 16.3778 31.3509 16.4304 31.1605 16.5355C30.973 16.6406 30.8253 16.794 30.7173 16.9957C30.6122 17.1946 30.5582 17.4347 30.5554 17.7159ZM39.2113 21.6278C38.538 21.6278 37.9585 21.4915 37.4727 21.2188C36.9897 20.9432 36.6175 20.554 36.3562 20.0511C36.0948 19.5455 35.9641 18.9474 35.9641 18.2571C35.9641 17.5838 36.0948 16.9929 36.3562 16.4844C36.6175 15.9759 36.9854 15.5795 37.4599 15.2955C37.9371 15.0114 38.4968 14.8693 39.1388 14.8693C39.5707 14.8693 39.9727 14.9389 40.3448 15.0781C40.7198 15.2145 41.0465 15.4205 41.3249 15.696C41.6062 15.9716 41.8249 16.3182 41.9812 16.7358C42.1374 17.1506 42.2156 17.6364 42.2156 18.1932V18.6918H36.6886V17.5668H40.5067C40.5067 17.3054 40.4499 17.0739 40.3363 16.8722C40.2227 16.6705 40.065 16.5128 39.8633 16.3991C39.6644 16.2827 39.4329 16.2244 39.1687 16.2244C38.8931 16.2244 38.6488 16.2884 38.4357 16.4162C38.2255 16.5412 38.0607 16.7102 37.9414 16.9233C37.8221 17.1335 37.761 17.3679 37.7582 17.6264V18.696C37.7582 19.0199 37.8178 19.2997 37.9371 19.5355C38.0593 19.7713 38.2312 19.9531 38.4528 20.081C38.6744 20.2088 38.9371 20.2727 39.2411 20.2727C39.4428 20.2727 39.6275 20.2443 39.7951 20.1875C39.9627 20.1307 40.1062 20.0455 40.2255 19.9318C40.3448 19.8182 40.4357 19.679 40.4982 19.5142L42.1772 19.625C42.092 20.0284 41.9173 20.3807 41.6531 20.6818C41.3917 20.9801 41.0536 21.2131 40.6388 21.3807C40.2269 21.5455 39.7511 21.6278 39.2113 21.6278ZM46.2116 12.7727H48.4872L50.8906 18.6364H50.9929L53.3963 12.7727H55.6719V21.5H53.8821V15.8196H53.8097L51.5511 21.4574H50.3324L48.0739 15.7983H48.0014V21.5H46.2116V12.7727ZM59.0245 21.6236C58.6069 21.6236 58.2347 21.5511 57.908 21.4062C57.5813 21.2585 57.3228 21.0412 57.1325 20.7543C56.945 20.4645 56.8512 20.1037 56.8512 19.6719C56.8512 19.3082 56.918 19.0028 57.0515 18.7557C57.185 18.5085 57.3668 18.3097 57.5969 18.1591C57.8271 18.0085 58.0884 17.8949 58.381 17.8182C58.6765 17.7415 58.9862 17.6875 59.31 17.6562C59.6907 17.6165 59.9975 17.5795 60.2305 17.5455C60.4634 17.5085 60.6325 17.4545 60.7376 17.3835C60.8427 17.3125 60.8952 17.2074 60.8952 17.0682V17.0426C60.8952 16.7727 60.81 16.5639 60.6396 16.4162C60.4719 16.2685 60.2333 16.1946 59.9237 16.1946C59.5969 16.1946 59.337 16.267 59.1438 16.4119C58.9506 16.554 58.8228 16.733 58.7603 16.9489L57.0813 16.8125C57.1665 16.4148 57.3342 16.071 57.5842 15.7812C57.8342 15.4886 58.1566 15.2642 58.5515 15.108C58.9492 14.9489 59.4094 14.8693 59.9322 14.8693C60.2958 14.8693 60.6438 14.9119 60.9762 14.9972C61.3114 15.0824 61.6083 15.2145 61.8668 15.3935C62.1282 15.5724 62.3342 15.8026 62.4847 16.0838C62.6353 16.3622 62.7106 16.696 62.7106 17.0852V21.5H60.989V20.5923H60.9379C60.8327 20.7969 60.6921 20.9773 60.516 21.1335C60.3398 21.2869 60.1282 21.4077 59.881 21.4957C59.6339 21.581 59.3484 21.6236 59.0245 21.6236ZM59.5444 20.3707C59.8114 20.3707 60.0472 20.3182 60.2518 20.2131C60.4563 20.1051 60.6168 19.9602 60.7333 19.7784C60.8498 19.5966 60.908 19.3906 60.908 19.1605V18.4659C60.8512 18.5028 60.7731 18.5369 60.6737 18.5682C60.5771 18.5966 60.4677 18.6236 60.3455 18.6491C60.2234 18.6719 60.1012 18.6932 59.979 18.7131C59.8569 18.7301 59.7461 18.7457 59.6467 18.7599C59.4336 18.7912 59.2475 18.8409 59.0884 18.9091C58.9293 18.9773 58.8058 19.0696 58.7177 19.1861C58.6296 19.2997 58.5856 19.4418 58.5856 19.6122C58.5856 19.8594 58.6751 20.0483 58.854 20.179C59.0359 20.3068 59.266 20.3707 59.5444 20.3707ZM65.7638 19.6165L65.7681 17.4389H66.0323L68.1289 14.9545H70.2127L67.396 18.2443H66.9656L65.7638 19.6165ZM64.119 21.5V12.7727H65.9343V21.5H64.119ZM68.2099 21.5L66.2837 18.6491L67.494 17.3665L70.3363 21.5H68.2099ZM73.8168 21.6278C73.1435 21.6278 72.5639 21.4915 72.0781 21.2188C71.5952 20.9432 71.223 20.554 70.9616 20.0511C70.7003 19.5455 70.5696 18.9474 70.5696 18.2571C70.5696 17.5838 70.7003 16.9929 70.9616 16.4844C71.223 15.9759 71.5909 15.5795 72.0653 15.2955C72.5426 15.0114 73.1023 14.8693 73.7443 14.8693C74.1761 14.8693 74.5781 14.9389 74.9503 15.0781C75.3253 15.2145 75.652 15.4205 75.9304 15.696C76.2116 15.9716 76.4304 16.3182 76.5866 16.7358C76.7429 17.1506 76.821 17.6364 76.821 18.1932V18.6918H71.294V17.5668H75.1122C75.1122 17.3054 75.0554 17.0739 74.9418 16.8722C74.8281 16.6705 74.6705 16.5128 74.4688 16.3991C74.2699 16.2827 74.0384 16.2244 73.7741 16.2244C73.4986 16.2244 73.2543 16.2884 73.0412 16.4162C72.831 16.5412 72.6662 16.7102 72.5469 16.9233C72.4276 17.1335 72.3665 17.3679 72.3636 17.6264V18.696C72.3636 19.0199 72.4233 19.2997 72.5426 19.5355C72.6648 19.7713 72.8366 19.9531 73.0582 20.081C73.2798 20.2088 73.5426 20.2727 73.8466 20.2727C74.0483 20.2727 74.233 20.2443 74.4006 20.1875C74.5682 20.1307 74.7116 20.0455 74.831 19.9318C74.9503 19.8182 75.0412 19.679 75.1037 19.5142L76.7827 19.625C76.6974 20.0284 76.5227 20.3807 76.2585 20.6818C75.9972 20.9801 75.6591 21.2131 75.2443 21.3807C74.8324 21.5455 74.3565 21.6278 73.8168 21.6278ZM78.0057 21.5V14.9545H79.7656V16.0966H79.8338C79.9531 15.6903 80.1534 15.3835 80.4347 15.1761C80.7159 14.9659 81.0398 14.8608 81.4062 14.8608C81.4972 14.8608 81.5952 14.8665 81.7003 14.8778C81.8054 14.8892 81.8977 14.9048 81.9773 14.9247V16.5355C81.892 16.5099 81.7741 16.4872 81.6236 16.4673C81.473 16.4474 81.3352 16.4375 81.2102 16.4375C80.9432 16.4375 80.7045 16.4957 80.4943 16.6122C80.2869 16.7259 80.1222 16.8849 80 17.0895C79.8807 17.294 79.821 17.5298 79.821 17.7969V21.5H78.0057ZM88.3619 16.821L86.6999 16.9233C86.6715 16.7812 86.6104 16.6534 86.5167 16.5398C86.4229 16.4233 86.2994 16.331 86.146 16.2628C85.9954 16.1918 85.815 16.1562 85.6048 16.1562C85.3235 16.1562 85.0863 16.2159 84.8931 16.3352C84.6999 16.4517 84.6033 16.608 84.6033 16.804C84.6033 16.9602 84.6658 17.0923 84.7908 17.2003C84.9158 17.3082 85.1303 17.3949 85.4343 17.4602L86.619 17.6989C87.2553 17.8295 87.7298 18.0398 88.0423 18.3295C88.3548 18.6193 88.511 19 88.511 19.4716C88.511 19.9006 88.3846 20.277 88.1317 20.6009C87.8817 20.9247 87.538 21.1776 87.1005 21.3594C86.6658 21.5384 86.1644 21.6278 85.5962 21.6278C84.7298 21.6278 84.0394 21.4474 83.5252 21.0866C83.0138 20.723 82.7141 20.2287 82.6261 19.6037L84.4116 19.5099C84.4656 19.7741 84.5962 19.9759 84.8036 20.1151C85.011 20.2514 85.2766 20.3196 85.6005 20.3196C85.9187 20.3196 86.1744 20.2585 86.3675 20.1364C86.5636 20.0114 86.663 19.8509 86.6658 19.6548C86.663 19.4901 86.5934 19.3551 86.457 19.25C86.3207 19.142 86.1104 19.0597 85.8263 19.0028L84.6928 18.777C84.0536 18.6491 83.5778 18.4276 83.2653 18.1122C82.9556 17.7969 82.8008 17.3949 82.8008 16.9062C82.8008 16.4858 82.9144 16.1236 83.1417 15.8196C83.3718 15.5156 83.6942 15.2812 84.109 15.1165C84.5266 14.9517 85.0153 14.8693 85.5749 14.8693C86.4016 14.8693 87.0522 15.044 87.5266 15.3935C88.0039 15.7429 88.2823 16.2187 88.3619 16.821Z" fill="white"/>
</svg>
