<svg width="585" height="192" viewBox="0 0 585 192" fill="none" xmlns="http://www.w3.org/2000/svg">
<g filter="url(#filter0_d_82_354)">
<rect x="29" width="540" height="160.001" rx="12" fill="#FCFCFD"/>
<path d="M18.6568 121.657L29 132L29 100L18.6569 110.343C15.5327 113.467 15.5327 118.533 18.6568 121.657Z" fill="#FCFCFD"/>
<path d="M58.056 39.249V41.961H53.592V56.001H50.232V41.961H45.768V39.249H58.056ZM67.9956 42.513C69.0036 42.513 69.8996 42.737 70.6836 43.185C71.4676 43.617 72.0756 44.265 72.5076 45.129C72.9556 45.977 73.1796 47.001 73.1796 48.201V56.001H69.8196V48.657C69.8196 47.601 69.5556 46.793 69.0276 46.233C68.4996 45.657 67.7796 45.369 66.8676 45.369C65.9396 45.369 65.2036 45.657 64.6596 46.233C64.1316 46.793 63.8676 47.601 63.8676 48.657V56.001H60.5076V38.241H63.8676V44.361C64.2996 43.785 64.8756 43.337 65.5956 43.017C66.3156 42.681 67.1156 42.513 67.9956 42.513ZM88.7348 49.065C88.7348 49.545 88.7028 49.977 88.6388 50.361H78.9188C78.9988 51.321 79.3348 52.073 79.9268 52.617C80.5188 53.161 81.2468 53.433 82.1108 53.433C83.3588 53.433 84.2468 52.897 84.7748 51.825H88.3988C88.0148 53.105 87.2788 54.161 86.1908 54.993C85.1028 55.809 83.7668 56.217 82.1828 56.217C80.9028 56.217 79.7508 55.937 78.7268 55.377C77.7188 54.801 76.9268 53.993 76.3508 52.953C75.7908 51.913 75.5107 50.713 75.5107 49.353C75.5107 47.977 75.7908 46.769 76.3508 45.729C76.9108 44.689 77.6948 43.889 78.7028 43.329C79.7108 42.769 80.8708 42.489 82.1828 42.489C83.4468 42.489 84.5748 42.761 85.5668 43.305C86.5748 43.849 87.3508 44.625 87.8948 45.633C88.4548 46.625 88.7348 47.769 88.7348 49.065ZM85.2548 48.105C85.2388 47.241 84.9268 46.553 84.3188 46.041C83.7108 45.513 82.9668 45.249 82.0868 45.249C81.2548 45.249 80.5508 45.505 79.9748 46.017C79.4148 46.513 79.0708 47.209 78.9428 48.105H85.2548ZM115.17 39.249V56.001H111.81V45.105L107.322 56.001H104.778L100.266 45.105V56.001H96.906V39.249H100.722L106.05 51.705L111.378 39.249H115.17ZM117.628 49.305C117.628 47.961 117.892 46.769 118.42 45.729C118.964 44.689 119.692 43.889 120.604 43.329C121.532 42.769 122.564 42.489 123.7 42.489C124.692 42.489 125.556 42.689 126.292 43.089C127.044 43.489 127.644 43.993 128.092 44.601V42.705H131.476V56.001H128.092V54.057C127.66 54.681 127.06 55.201 126.292 55.617C125.54 56.017 124.668 56.217 123.676 56.217C122.556 56.217 121.532 55.929 120.604 55.353C119.692 54.777 118.964 53.969 118.42 52.929C117.892 51.873 117.628 50.665 117.628 49.305ZM128.092 49.353C128.092 48.537 127.932 47.841 127.612 47.265C127.292 46.673 126.86 46.225 126.316 45.921C125.772 45.601 125.188 45.441 124.564 45.441C123.94 45.441 123.364 45.593 122.836 45.897C122.308 46.201 121.876 46.649 121.54 47.241C121.22 47.817 121.06 48.505 121.06 49.305C121.06 50.105 121.22 50.809 121.54 51.417C121.876 52.009 122.308 52.465 122.836 52.785C123.38 53.105 123.956 53.265 124.564 53.265C125.188 53.265 125.772 53.113 126.316 52.809C126.86 52.489 127.292 52.041 127.612 51.465C127.932 50.873 128.092 50.169 128.092 49.353ZM142.63 56.001L138.118 50.337V56.001H134.758V38.241H138.118V48.345L142.582 42.705H146.95L141.094 49.377L146.998 56.001H142.63ZM161.133 49.065C161.133 49.545 161.101 49.977 161.037 50.361H151.317C151.397 51.321 151.733 52.073 152.325 52.617C152.917 53.161 153.645 53.433 154.509 53.433C155.757 53.433 156.645 52.897 157.173 51.825H160.797C160.413 53.105 159.677 54.161 158.589 54.993C157.501 55.809 156.165 56.217 154.581 56.217C153.301 56.217 152.149 55.937 151.125 55.377C150.117 54.801 149.325 53.993 148.749 52.953C148.189 51.913 147.909 50.713 147.909 49.353C147.909 47.977 148.189 46.769 148.749 45.729C149.309 44.689 150.093 43.889 151.101 43.329C152.109 42.769 153.269 42.489 154.581 42.489C155.845 42.489 156.973 42.761 157.965 43.305C158.973 43.849 159.749 44.625 160.293 45.633C160.853 46.625 161.133 47.769 161.133 49.065ZM157.653 48.105C157.637 47.241 157.325 46.553 156.717 46.041C156.109 45.513 155.365 45.249 154.485 45.249C153.653 45.249 152.949 45.505 152.373 46.017C151.813 46.513 151.469 47.209 151.341 48.105H157.653ZM166.946 44.769C167.378 44.065 167.938 43.513 168.626 43.113C169.33 42.713 170.13 42.513 171.026 42.513V46.041H170.138C169.082 46.041 168.282 46.289 167.738 46.785C167.21 47.281 166.946 48.145 166.946 49.377V56.001H163.586V42.705H166.946V44.769ZM178.377 56.217C177.289 56.217 176.313 56.025 175.449 55.641C174.585 55.241 173.897 54.705 173.385 54.033C172.889 53.361 172.617 52.617 172.569 51.801H175.953C176.017 52.313 176.265 52.737 176.697 53.073C177.145 53.409 177.697 53.577 178.353 53.577C178.993 53.577 179.489 53.449 179.841 53.193C180.209 52.937 180.393 52.609 180.393 52.209C180.393 51.777 180.169 51.457 179.721 51.249C179.289 51.025 178.593 50.785 177.633 50.529C176.641 50.289 175.825 50.041 175.185 49.785C174.561 49.529 174.017 49.137 173.553 48.609C173.105 48.081 172.881 47.369 172.881 46.473C172.881 45.737 173.089 45.065 173.505 44.457C173.937 43.849 174.545 43.369 175.329 43.017C176.129 42.665 177.065 42.489 178.137 42.489C179.721 42.489 180.985 42.889 181.929 43.689C182.873 44.473 183.393 45.537 183.489 46.881H180.273C180.225 46.353 180.001 45.937 179.601 45.633C179.217 45.313 178.697 45.153 178.041 45.153C177.433 45.153 176.961 45.265 176.625 45.489C176.305 45.713 176.145 46.025 176.145 46.425C176.145 46.873 176.369 47.217 176.817 47.457C177.265 47.681 177.961 47.913 178.905 48.153C179.865 48.393 180.657 48.641 181.281 48.897C181.905 49.153 182.441 49.553 182.889 50.097C183.353 50.625 183.593 51.329 183.609 52.209C183.609 52.977 183.393 53.665 182.961 54.273C182.545 54.881 181.937 55.361 181.137 55.713C180.353 56.049 179.433 56.217 178.377 56.217ZM192.175 60.729C190.623 59.225 189.415 57.305 188.551 54.969C187.703 52.633 187.279 50.129 187.279 47.457C187.279 44.721 187.727 42.153 188.623 39.753C189.519 37.337 190.823 35.361 192.535 33.825H195.919V34.137C194.159 35.817 192.815 37.833 191.887 40.185C190.975 42.537 190.519 44.961 190.519 47.457C190.519 49.889 190.951 52.241 191.815 54.513C192.695 56.769 193.943 58.729 195.559 60.393V60.729H192.175ZM198.303 37.113H207.807V39.657H198.303V37.113ZM201.039 42.081H204.207V47.577H201.039V42.081ZM206.559 37.113H209.703V38.553C209.703 40.041 209.703 41.985 209.199 44.409L206.103 44.169C206.559 41.793 206.559 40.041 206.559 38.553V37.113ZM211.863 35.913H215.079V49.449H211.863V35.913ZM213.807 41.361H217.743V44.001H213.807V41.361ZM197.319 48.561L197.007 46.017C200.991 46.017 206.223 45.969 210.663 45.417L210.855 47.673C206.295 48.465 201.255 48.561 197.319 48.561ZM207.567 49.713C212.295 49.713 215.271 51.297 215.271 53.889C215.271 56.553 212.295 58.113 207.567 58.113C202.839 58.113 199.887 56.553 199.887 53.889C199.887 51.297 202.839 49.713 207.567 49.713ZM207.567 52.161C204.711 52.161 203.127 52.737 203.127 53.889C203.127 55.089 204.711 55.641 207.567 55.641C210.447 55.641 211.983 55.089 211.983 53.889C211.983 52.737 210.447 52.161 207.567 52.161ZM221.678 37.761H235.67V40.305H221.678V37.761ZM219.398 53.025H239.486V55.593H219.398V53.025ZM234.398 37.761H237.542V39.705C237.542 42.393 237.566 45.537 236.534 50.361L233.39 50.025C234.398 45.513 234.398 42.273 234.398 39.705V37.761ZM234.974 43.113V45.513L221.414 46.257L220.982 43.545L234.974 43.113ZM226.526 47.697H229.718V53.961H226.526V47.697ZM243.732 45.465H259.476V48.009H243.732V45.465ZM241.5 53.073H261.612V55.641H241.5V53.073ZM249.948 46.977H253.14V53.793H249.948V46.977ZM243.732 37.593H246.948V46.569H243.732V37.593ZM263.578 52.977H283.69V55.569H263.578V52.977ZM272.026 48.057H275.218V53.697H272.026V48.057ZM271.93 38.817H274.618V39.609C274.618 44.289 271.258 48.009 265.594 49.041L264.346 46.521C269.29 45.753 271.93 42.681 271.93 39.609V38.817ZM272.578 38.817H275.266V39.609C275.266 42.681 277.906 45.657 282.97 46.401L281.746 48.921C275.986 47.913 272.578 44.289 272.578 39.609V38.817ZM265.234 37.593H281.962V40.137H265.234V37.593ZM285.464 60.729V60.393C287.08 58.729 288.32 56.769 289.184 54.513C290.064 52.241 290.504 49.889 290.504 47.457C290.504 44.961 290.04 42.537 289.112 40.185C288.2 37.833 286.864 35.817 285.104 34.137V33.825H288.488C290.2 35.361 291.504 37.337 292.4 39.753C293.296 42.153 293.744 44.721 293.744 47.457C293.744 50.129 293.312 52.633 292.448 54.969C291.6 57.305 290.4 59.225 288.848 60.729H285.464Z" fill="#23262F"/>
<rect width="508" height="1" transform="translate(45 88.001)" fill="#E6E8EC"/>
<path fill-rule="evenodd" clip-rule="evenodd" d="M62.3191 107.007C61.7451 106.956 61.1145 107.254 60.5123 107.856L59.8906 108.478L63.5236 112.111L64.1453 111.489C64.7475 110.887 65.0454 110.256 64.9941 109.682C64.9326 108.994 64.7193 108.288 64.2164 107.785C63.7136 107.282 63.0077 107.069 62.3191 107.007ZM52.8708 115.497L58.4764 109.892L62.1094 113.525L56.5039 119.13C55.7586 119.876 54.7991 120.369 53.7595 120.543L51.0114 121.001C51.0093 121.001 51.0079 121.001 51.0071 121.001C51.0063 121.001 51.0049 121 51.0031 120.998C51.0023 120.997 51.0017 120.996 51.0012 120.996C51.0006 120.995 51.0002 120.994 51 120.994C51 120.993 51.0002 120.992 51.0005 120.99L51.4585 118.242C51.6318 117.202 52.1256 116.243 52.8708 115.497ZM59.0981 106.442C59.905 105.635 61.0862 104.889 62.4972 105.015C63.4222 105.098 64.6629 105.403 65.6307 106.371C66.5984 107.338 66.9035 108.579 66.9862 109.504C67.1123 110.915 66.3665 112.096 65.5595 112.903L57.9181 120.545C56.8781 121.585 55.5391 122.274 54.0883 122.515L51.3402 122.973C49.9801 123.2 48.801 122.021 49.0277 120.661L49.4857 117.913C49.7275 116.462 50.4166 115.123 51.4566 114.083L59.0981 106.442ZM46 126.001C45.4477 126.001 45 126.449 45 127.001C45 127.554 45.4477 128.001 46 128.001H66C66.5523 128.001 67 127.554 67 127.001C67 126.449 66.5523 126.001 66 126.001H46Z" fill="#777E90"/>
<path d="M78.8782 116.825H80.7542V119.499H78.8782V116.825ZM78.8642 112.205H80.3482V112.499C80.3482 114.669 79.1862 116.559 76.7222 117.217L75.8822 115.789C77.9542 115.243 78.8642 113.885 78.8642 112.499V112.205ZM79.2562 112.205H80.7542V112.499C80.7542 113.829 81.6922 115.145 83.7502 115.677L82.9242 117.105C80.4602 116.475 79.2562 114.613 79.2562 112.499V112.205ZM76.2742 111.309H83.3722V112.779H76.2742V111.309ZM78.8782 109.895H80.7542V111.953H78.8782V109.895ZM84.5202 109.769H86.3822V122.775H84.5202V109.769ZM75.8402 120.367L75.6162 118.855C77.8842 118.855 81.0762 118.827 83.8062 118.421L83.9462 119.779C81.1322 120.325 78.0802 120.353 75.8402 120.367ZM93.3252 110.161H94.9632V110.763C94.9632 113.255 93.0032 115.369 89.6012 115.873L88.8732 114.375C91.8552 113.983 93.3252 112.289 93.3252 110.763V110.161ZM93.6752 110.161H95.2992V110.763C95.2992 112.275 96.7832 113.983 99.7512 114.375L99.0372 115.873C95.6352 115.369 93.6752 113.255 93.6752 110.763V110.161ZM93.3392 118.001H95.1872V122.747H93.3392V118.001ZM88.4532 116.825H100.171V118.337H88.4532V116.825ZM104.44 111.827H105.924V113.283C105.924 116.279 104.706 119.205 102.27 120.311L101.22 118.841C103.39 117.875 104.44 115.481 104.44 113.283V111.827ZM104.86 111.827H106.33V113.283C106.33 115.383 107.366 117.623 109.536 118.519L108.528 119.989C106.064 118.925 104.86 116.167 104.86 113.283V111.827ZM101.738 111.029H109.004V112.555H101.738V111.029ZM110.208 109.783H112.084V122.747H110.208V109.783ZM119.181 109.853H121.043V122.691H119.181V109.853ZM127.09 119.737H138.822V121.249H127.09V119.737ZM132.018 116.867H133.88V120.157H132.018V116.867ZM131.962 111.477H133.53V111.939C133.53 114.669 131.57 116.839 128.266 117.441L127.538 115.971C130.422 115.523 131.962 113.731 131.962 111.939V111.477ZM132.34 111.477H133.908V111.939C133.908 113.731 135.448 115.467 138.402 115.901L137.688 117.371C134.328 116.783 132.34 114.669 132.34 111.939V111.477ZM128.056 110.763H137.814V112.247H128.056V110.763ZM145.107 112.639H147.263V114.137H145.107V112.639ZM145.107 116.643H147.263V118.155H145.107V116.643ZM149.321 109.783H151.099V122.747H149.321V109.783ZM146.731 109.979H148.467V122.159H146.731V109.979ZM142.867 110.693C144.589 110.693 145.695 112.471 145.695 115.397C145.695 118.337 144.589 120.115 142.867 120.115C141.159 120.115 140.067 118.337 140.067 115.397C140.067 112.471 141.159 110.693 142.867 110.693ZM142.867 112.443C142.153 112.443 141.733 113.423 141.733 115.397C141.733 117.385 142.153 118.351 142.867 118.351C143.595 118.351 144.015 117.385 144.015 115.397C144.015 113.423 143.595 112.443 142.867 112.443ZM152.834 116.391H164.552V117.875H152.834V116.391ZM154.248 121.039H163.236V122.523H154.248V121.039ZM154.248 118.743H156.11V121.515H154.248V118.743ZM158.7 110.161C161.514 110.161 163.39 111.183 163.39 112.835C163.39 114.487 161.514 115.509 158.7 115.509C155.872 115.509 154.01 114.487 154.01 112.835C154.01 111.183 155.872 110.161 158.7 110.161ZM158.7 111.645C156.95 111.645 155.928 112.051 155.928 112.835C155.928 113.633 156.95 114.025 158.7 114.025C160.45 114.025 161.472 113.633 161.472 112.835C161.472 112.051 160.45 111.645 158.7 111.645ZM170.697 109.853H172.559V122.691H170.697V109.853ZM187.481 109.769H189.357V122.775H187.481V109.769ZM182.371 110.679C184.331 110.679 185.773 112.471 185.773 115.299C185.773 118.155 184.331 119.947 182.371 119.947C180.411 119.947 178.969 118.155 178.969 115.299C178.969 112.471 180.411 110.679 182.371 110.679ZM182.371 112.373C181.405 112.373 180.747 113.395 180.747 115.299C180.747 117.231 181.405 118.267 182.371 118.267C183.337 118.267 183.981 117.231 183.981 115.299C183.981 113.395 183.337 112.373 182.371 112.373ZM191.484 119.737H203.216V121.249H191.484V119.737ZM196.398 116.965H198.26V120.101H196.398V116.965ZM192.716 110.609H194.564V112.597H200.094V110.609H201.942V117.357H192.716V110.609ZM194.564 114.053V115.873H200.094V114.053H194.564ZM210.089 111.477H213.925V112.961H210.089V111.477ZM210.089 114.347H213.925V115.845H210.089V114.347ZM207.933 110.469C209.865 110.469 211.349 111.813 211.349 113.647C211.349 115.481 209.865 116.825 207.933 116.825C205.987 116.825 204.503 115.481 204.503 113.647C204.503 111.813 205.987 110.469 207.933 110.469ZM207.933 112.051C206.981 112.051 206.281 112.625 206.281 113.647C206.281 114.655 206.981 115.257 207.933 115.257C208.885 115.257 209.585 114.655 209.585 113.647C209.585 112.625 208.885 112.051 207.933 112.051ZM213.337 109.783H215.199V117.371H213.337V109.783ZM210.803 117.637C213.533 117.637 215.241 118.589 215.241 120.199C215.241 121.809 213.533 122.747 210.803 122.747C208.073 122.747 206.365 121.809 206.365 120.199C206.365 118.589 208.073 117.637 210.803 117.637ZM210.803 119.079C209.109 119.079 208.199 119.443 208.199 120.199C208.199 120.955 209.109 121.319 210.803 121.319C212.511 121.319 213.407 120.955 213.407 120.199C213.407 119.443 212.511 119.079 210.803 119.079ZM222.212 109.853H224.074V122.691H222.212V109.853ZM238.451 109.783H240.313V117.553H238.451V109.783ZM239.795 112.933H242.035V114.459H239.795V112.933ZM231.661 118.127H240.313V122.747H238.451V119.611H231.661V118.127ZM230.485 110.595H232.333V112.303H234.867V110.595H236.715V116.895H230.485V110.595ZM232.333 113.731V115.439H234.867V113.731H232.333ZM245.996 110.455H247.55V111.617C247.55 114.221 246.388 116.503 243.84 117.357L242.874 115.859C245.086 115.145 245.996 113.395 245.996 111.617V110.455ZM246.388 110.455H247.886V111.533C247.886 113.255 248.726 114.851 250.784 115.509L249.818 116.965C247.424 116.139 246.388 114.053 246.388 111.533V110.455ZM251.974 109.783H253.836V117.371H251.974V109.783ZM249.44 117.707C252.184 117.707 253.878 118.645 253.878 120.227C253.878 121.823 252.184 122.747 249.44 122.747C246.696 122.747 245.002 121.823 245.002 120.227C245.002 118.645 246.696 117.707 249.44 117.707ZM249.44 119.149C247.76 119.149 246.864 119.499 246.864 120.227C246.864 120.955 247.76 121.319 249.44 121.319C251.134 121.319 252.03 120.955 252.03 120.227C252.03 119.499 251.134 119.149 249.44 119.149ZM249.608 112.135H252.24V113.647H249.608V112.135ZM255.865 117.077H267.583V118.519H255.865V117.077ZM260.947 118.141H262.823V120.101H260.947V118.141ZM257.223 121.081H266.309V122.523H257.223V121.081ZM257.223 119.317H259.071V121.991H257.223V119.317ZM256.425 110.833H266.981V112.233H256.425V110.833ZM261.731 112.597C264.489 112.597 266.071 113.283 266.071 114.571C266.071 115.859 264.489 116.559 261.731 116.559C258.973 116.559 257.391 115.859 257.391 114.571C257.391 113.283 258.973 112.597 261.731 112.597ZM261.731 113.899C260.037 113.899 259.295 114.095 259.295 114.571C259.295 115.047 260.037 115.243 261.731 115.243C263.411 115.243 264.167 115.047 264.167 114.571C264.167 114.095 263.411 113.899 261.731 113.899ZM260.793 109.727H262.655V111.729H260.793V109.727ZM273.728 109.853H275.59V122.691H273.728V109.853ZM286.495 110.525H288.455C288.455 113.969 286.257 116.307 282.393 117.301L281.693 115.845C284.871 115.047 286.495 113.395 286.495 111.449V110.525ZM282.435 110.525H287.699V111.981H282.435V110.525ZM290.527 109.783H292.403V117.007H290.527V109.783ZM283.821 117.553H292.403V122.607H283.821V117.553ZM290.569 119.023H285.655V121.137H290.569V119.023ZM300.368 111.589H304.176V113.073H300.368V111.589ZM300.368 114.739H304.176V116.223H300.368V114.739ZM303.49 109.797H305.352V119.275H303.49V109.797ZM296.798 121.039H305.646V122.523H296.798V121.039ZM296.798 118.337H298.66V121.809H296.798V118.337ZM298.086 110.553C300.004 110.553 301.502 111.953 301.502 113.913C301.502 115.845 300.004 117.259 298.086 117.259C296.154 117.259 294.656 115.845 294.656 113.913C294.656 111.953 296.154 110.553 298.086 110.553ZM298.086 112.191C297.134 112.191 296.434 112.835 296.434 113.913C296.434 114.991 297.134 115.635 298.086 115.635C299.024 115.635 299.738 114.991 299.738 113.913C299.738 112.835 299.024 112.191 298.086 112.191ZM307.381 117.035H319.127V118.533H307.381V117.035ZM312.281 118.001H314.129V122.761H312.281V118.001ZM313.219 110.217C315.991 110.217 317.909 111.365 317.909 113.143C317.909 114.907 315.991 116.041 313.219 116.041C310.461 116.041 308.543 114.907 308.543 113.143C308.543 111.365 310.461 110.217 313.219 110.217ZM313.219 111.701C311.525 111.701 310.447 112.205 310.447 113.143C310.447 114.067 311.525 114.571 313.219 114.571C314.927 114.571 315.991 114.067 315.991 113.143C315.991 112.205 314.927 111.701 313.219 111.701ZM321.379 121.599C321.053 121.599 320.782 121.496 320.567 121.291C320.362 121.086 320.259 120.838 320.259 120.549C320.259 120.25 320.362 119.998 320.567 119.793C320.782 119.588 321.053 119.485 321.379 119.485C321.706 119.485 321.972 119.588 322.177 119.793C322.392 119.998 322.499 120.25 322.499 120.549C322.499 120.838 322.392 121.086 322.177 121.291C321.972 121.496 321.706 121.599 321.379 121.599ZM324.743 121.599C324.416 121.599 324.145 121.496 323.931 121.291C323.725 121.086 323.623 120.838 323.623 120.549C323.623 120.25 323.725 119.998 323.931 119.793C324.145 119.588 324.416 119.485 324.743 119.485C325.069 119.485 325.335 119.588 325.541 119.793C325.755 119.998 325.863 120.25 325.863 120.549C325.863 120.838 325.755 121.086 325.541 121.291C325.335 121.496 325.069 121.599 324.743 121.599ZM328.106 121.599C327.779 121.599 327.509 121.496 327.294 121.291C327.089 121.086 326.986 120.838 326.986 120.549C326.986 120.25 327.089 119.998 327.294 119.793C327.509 119.588 327.779 119.485 328.106 119.485C328.433 119.485 328.699 119.588 328.904 119.793C329.119 119.998 329.226 120.25 329.226 120.549C329.226 120.838 329.119 121.086 328.904 121.291C328.699 121.496 328.433 121.599 328.106 121.599Z" fill="#777E91"/>
</g>
<defs>
<filter id="filter0_d_82_354" x="0.313721" y="0" width="584.686" height="192.001" filterUnits="userSpaceOnUse" color-interpolation-filters="sRGB">
<feFlood flood-opacity="0" result="BackgroundImageFix"/>
<feColorMatrix in="SourceAlpha" type="matrix" values="0 0 0 0 0 0 0 0 0 0 0 0 0 0 0 0 0 0 127 0" result="hardAlpha"/>
<feMorphology radius="48" operator="erode" in="SourceAlpha" result="effect1_dropShadow_82_354"/>
<feOffset dy="16"/>
<feGaussianBlur stdDeviation="32"/>
<feColorMatrix type="matrix" values="0 0 0 0 0.121458 0 0 0 0 0.182875 0 0 0 0 0.275 0 0 0 0.4 0"/>
<feBlend mode="multiply" in2="BackgroundImageFix" result="effect1_dropShadow_82_354"/>
<feBlend mode="normal" in="SourceGraphic" in2="effect1_dropShadow_82_354" result="shape"/>
</filter>
</defs>
</svg>
