<svg width="28" height="24" viewBox="0 0 28 24" fill="none" xmlns="http://www.w3.org/2000/svg">
<path fill-rule="evenodd" clip-rule="evenodd" d="M23.3841 20.2632C24.5926 19.1756 25.222 17.0767 25.222 11.9999C25.222 6.92308 24.5926 4.82423 23.3841 3.73655C22.7778 3.19089 21.846 2.73637 20.2784 2.43208C18.6996 2.12561 16.6313 1.99998 13.8888 1.99998C11.1462 1.99998 9.07787 2.12561 7.4991 2.43208C5.93155 2.73637 4.99974 3.19089 4.39344 3.73655C3.18491 4.82423 2.55552 6.92308 2.55552 11.9999C2.55552 17.0767 3.18491 19.1756 4.39344 20.2632C4.99974 20.8089 5.93155 21.2634 7.4991 21.5677C9.07787 21.8742 11.1462 21.9998 13.8888 21.9998C16.6313 21.9998 18.6996 21.8742 20.2784 21.5677C21.846 21.2634 22.7778 20.8089 23.3841 20.2632ZM13.8888 23.9998C24.9998 23.9998 27.222 21.9998 27.222 11.9999C27.222 1.99998 24.9998 0 13.8888 0C2.77774 0 0.555542 1.99998 0.555542 11.9999C0.555542 21.9998 2.77774 23.9998 13.8888 23.9998ZM14 5.99988C14.5523 5.99988 15 6.44759 15 6.99988V10.9999H19C19.5523 10.9999 20 11.4476 20 11.9999C20 12.5522 19.5523 12.9999 19 12.9999H15V16.9999C15 17.5522 14.5523 17.9999 14 17.9999C13.4477 17.9999 13 17.5522 13 16.9999V12.9999H9C8.44771 12.9999 8 12.5522 8 11.9999C8 11.4476 8.44771 10.9999 9 10.9999H13V6.99988C13 6.44759 13.4477 5.99988 14 5.99988Z" fill="black"/>
</svg>
